<svg xmlns="http://www.w3.org/2000/svg" xmlns:xlink="http://www.w3.org/1999/xlink" width="34" height="34" viewBox="0 0 34 34"><defs><style>.a{fill:url(#a);}.b{fill:url(#b);}.c{fill:url(#c);}.d{fill:url(#d);}.e{fill:url(#e);}.f{fill:url(#f);}.g{fill:url(#g);}.h{fill:url(#h);}.i{fill:url(#i);}.j{fill:url(#j);}.k{fill:url(#k);}.l{fill:url(#l);}.m{fill:url(#m);}.n{fill:url(#n);}.o{fill:url(#o);}.p{fill:url(#p);}.q{fill:url(#q);}.r{fill:url(#r);}.s{fill:url(#s);}.t{fill:url(#t);}.u{fill:url(#u);}.v{fill:url(#v);}.w{fill:url(#w);}.x{fill:url(#x);}.y{fill:url(#y);}.z{fill:url(#z);}.aa{fill:url(#aa);}.ab{fill:url(#ab);}.ac{fill:url(#ac);}.ad{fill:url(#ad);}.ae{fill:url(#ae);}.af{fill:url(#af);}.ag{fill:url(#ag);}.ah{fill:url(#ah);}.ai{fill:url(#ai);}.aj{fill:url(#aj);}</style><linearGradient id="a" x1="0.146" y1="0.854" x2="0.854" y2="0.146" gradientUnits="objectBoundingBox"><stop offset="0" stop-color="#ff4c4c"/><stop offset="1" stop-color="#fff200"/></linearGradient><radialGradient id="b" cx="0.5" cy="0.5" r="0.5" gradientUnits="objectBoundingBox"><stop offset="0" stop-color="#ff4c4c"/><stop offset="0.108" stop-color="#ff544e" stop-opacity="0.886"/><stop offset="0.269" stop-color="#ff6853" stop-opacity="0.718"/><stop offset="0.464" stop-color="#ff895c" stop-opacity="0.514"/><stop offset="0.684" stop-color="#ffb767" stop-opacity="0.282"/><stop offset="0.923" stop-color="#fff276" stop-opacity="0.031"/><stop offset="0.954" stop-color="#fffa78" stop-opacity="0"/></radialGradient><linearGradient id="c" x1="-0.663" y1="1.741" x2="3.381" y2="-1.72" gradientUnits="objectBoundingBox"><stop offset="0" stop-color="#ffb11d"/><stop offset="1" stop-color="#feffd6"/></linearGradient><linearGradient id="d" x1="-0.488" y1="2.248" x2="0.99" y2="-0.481" xlink:href="#c"/><linearGradient id="e" x1="-2.383" y1="2.394" x2="2.777" y2="-1.03" gradientUnits="objectBoundingBox"><stop offset="0" stop-color="#ffcb00"/><stop offset="1" stop-color="#fff"/></linearGradient><linearGradient id="f" x1="-1.778" y1="3.786" x2="1.008" y2="-0.179" xlink:href="#e"/><linearGradient id="g" x1="-0.897" y1="3.172" x2="2.992" y2="-4.507" xlink:href="#c"/><linearGradient id="h" x1="-1.496" y1="3.483" x2="2.411" y2="-2.339" xlink:href="#c"/><linearGradient id="i" x1="-0.881" y1="3.195" x2="2.964" y2="-4.564" xlink:href="#c"/><linearGradient id="j" x1="-1.47" y1="3.49" x2="2.385" y2="-2.349" xlink:href="#c"/><linearGradient id="k" x1="-0.857" y1="3.14" x2="2.925" y2="-4.481" xlink:href="#c"/><linearGradient id="l" x1="-1.444" y1="3.458" x2="2.359" y2="-2.328" xlink:href="#c"/><linearGradient id="m" x1="-1.129" y1="3.658" x2="2.724" y2="-4.038" xlink:href="#c"/><linearGradient id="n" x1="-1.778" y1="3.91" x2="2.08" y2="-1.861" xlink:href="#c"/><linearGradient id="o" x1="-1.136" y1="3.639" x2="2.736" y2="-4.005" xlink:href="#c"/><linearGradient id="p" x1="-1.792" y1="3.89" x2="2.091" y2="-1.844" xlink:href="#c"/><linearGradient id="q" x1="-1.125" y1="3.648" x2="2.717" y2="-4.025" xlink:href="#c"/><linearGradient id="r" x1="-1.767" y1="3.892" x2="2.07" y2="-1.849" xlink:href="#c"/><linearGradient id="s" x1="-1.123" y1="3.608" x2="2.713" y2="-3.963" xlink:href="#c"/><linearGradient id="t" x1="-1.767" y1="3.849" x2="2.069" y2="-1.816" xlink:href="#c"/><linearGradient id="u" x1="-1.115" y1="3.638" x2="2.703" y2="-4.008" xlink:href="#c"/><linearGradient id="v" x1="-1.747" y1="3.873" x2="2.055" y2="-1.835" xlink:href="#c"/><linearGradient id="w" x1="-1.096" y1="3.552" x2="2.678" y2="-3.88" xlink:href="#c"/><linearGradient id="x" x1="-1.723" y1="3.79" x2="2.038" y2="-1.775" xlink:href="#c"/><linearGradient id="y" x1="-1.103" y1="3.638" x2="2.685" y2="-4.006" xlink:href="#c"/><linearGradient id="z" x1="-1.722" y1="3.864" x2="2.036" y2="-1.827" xlink:href="#c"/><linearGradient id="aa" x1="-1.13" y1="3.681" x2="2.72" y2="-4.076" xlink:href="#c"/><linearGradient id="ab" x1="-1.767" y1="3.945" x2="2.068" y2="-1.891" xlink:href="#c"/><linearGradient id="ac" x1="-1.068" y1="3.507" x2="2.639" y2="-3.812" xlink:href="#c"/><linearGradient id="ad" x1="-1.675" y1="3.741" x2="2.003" y2="-1.74" xlink:href="#c"/><linearGradient id="ae" x1="-0.895" y1="3.159" x2="2.989" y2="-4.49" xlink:href="#c"/><linearGradient id="af" x1="-1.493" y1="3.455" x2="2.406" y2="-2.314" xlink:href="#c"/><linearGradient id="ag" x1="-0.884" y1="3.178" x2="2.968" y2="-4.537" xlink:href="#c"/><linearGradient id="ah" x1="-1.473" y1="3.467" x2="2.387" y2="-2.329" xlink:href="#c"/><linearGradient id="ai" x1="-0.565" y1="10.938" x2="2.397" y2="-18.406" xlink:href="#c"/><linearGradient id="aj" x1="-0.963" y1="11.465" x2="1.897" y2="-9.98" xlink:href="#c"/></defs><circle class="a" cx="17" cy="17" r="17"/><circle class="b" cx="17" cy="17" r="17"/><path class="c" d="M72.6,240.664c-2.641,1.551-5.28,3.089-7.858,4.561q.042,1.362.116,2.725a2.036,2.036,0,0,0,1.929,1.877q2.952.089,5.9.123Q72.585,245.307,72.6,240.664Z" transform="translate(-60.818 -224.079)"/><path class="d" d="M163.752,240.711q-.013,3.7.081,7.405a1.933,1.933,0,0,0,1.87,1.878h.078a.872.872,0,0,0,.638-.266l.371-.382a.888.888,0,0,1,.642-.268q1.448.008,2.9,0a.894.894,0,0,1,.643.27l.373.383a.878.878,0,0,0,.639.268q3.445-.029,6.889-.133a2.036,2.036,0,0,0,1.929-1.877q.074-1.362.116-2.725C175.25,243.845,169.485,242.243,163.752,240.711Z" transform="translate(-150.836 -224.122)"/><path class="e" d="M65.913,118.094a2.036,2.036,0,0,0-1.929,1.877q-.27,5-.116,9.99,3.011.047,6.022.07c.559-4.007,1.233-8.029,1.926-12.06Q68.864,118,65.913,118.094Z" transform="translate(-59.949 -109.697)"/><path class="f" d="M178.872,117.769q-6.584-.2-13.169-.123a1.933,1.933,0,0,0-1.87,1.877q-.13,5.091-.056,10.182,8.569.064,17.139-.07.154-5-.116-9.99A2.036,2.036,0,0,0,178.872,117.769Z" transform="translate(-150.835 -109.372)"/><path class="g" d="M80.831,157.247q-.021.456-.039.912a.43.43,0,0,0,.445.448l1.848-.029a.485.485,0,0,0,.474-.467q.013-.46.029-.92Q82.21,157.214,80.831,157.247Z" transform="translate(-75.38 -146.708)"/><path class="h" d="M83.783,134.553q-.913.021-1.826.047a.5.5,0,0,0-.481.469q-.024.456-.045.912a.423.423,0,0,0,.44.446q.921-.019,1.842-.035a.489.489,0,0,0,.475-.468q.015-.46.033-.92A.426.426,0,0,0,83.783,134.553Z" transform="translate(-75.975 -125.567)"/><path class="i" d="M79.319,218.017q-.008.456-.013.912a.454.454,0,0,0,.461.454l1.861-.006a.468.468,0,0,0,.468-.461q0-.46.01-.92Q80.713,218,79.319,218.017Z" transform="translate(-73.994 -203.459)"/><path class="j" d="M81.867,195.277l-1.853.023a.483.483,0,0,0-.475.462q-.011.456-.019.912a.448.448,0,0,0,.458.453l1.86-.012a.472.472,0,0,0,.47-.463q.006-.46.014-.92A.445.445,0,0,0,81.867,195.277Z" transform="translate(-74.193 -182.236)"/><path class="k" d="M79.307,278.586q0,.456.013.912a.477.477,0,0,0,.473.461l1.857.017a.45.45,0,0,0,.458-.456q-.006-.46-.01-.92Z" transform="translate(-73.994 -260.01)"/><path class="l" d="M81.527,256H79.666a.46.46,0,0,0-.465.456q0,.456.006.912a.471.471,0,0,0,.471.459l1.86.012a.455.455,0,0,0,.461-.458q0-.46,0-.92A.464.464,0,0,0,81.527,256Z" transform="translate(-73.895 -238.905)"/><path class="m" d="M202.228,217.567q0,.465,0,.929a.463.463,0,0,0,.464.464h1.861a.466.466,0,0,0,.465-.466q0-.465,0-.931Q203.622,217.564,202.228,217.567Z" transform="translate(-188.678 -203.055)"/><path class="n" d="M204.615,194.51l-1.853,0a.471.471,0,0,0-.467.466q0,.465-.006.929a.461.461,0,0,0,.463.464l1.86,0a.466.466,0,0,0,.465-.466q0-.465,0-.931A.463.463,0,0,0,204.615,194.51Z" transform="translate(-188.739 -181.52)"/><path class="o" d="M202.689,156.077q-.006.465-.012.929a.454.454,0,0,0,.457.462l1.848-.006a.465.465,0,0,0,.463-.466q0-.465,0-.931Q204.068,156.067,202.689,156.077Z" transform="translate(-189.102 -145.659)"/><path class="p" d="M205.175,133.019q-.913,0-1.826.009a.475.475,0,0,0-.464.468q-.007.465-.014.929a.452.452,0,0,0,.454.462q.921-.005,1.842-.007a.465.465,0,0,0,.461-.466q0-.465,0-.931A.459.459,0,0,0,205.175,133.019Z" transform="translate(-189.283 -124.136)"/><path class="q" d="M263.673,217.564q0,.465,0,.931a.466.466,0,0,0,.465.466H266a.463.463,0,0,0,.464-.464q0-.465,0-.929Q265.067,217.565,263.673,217.564Z" transform="translate(-246.011 -203.056)"/><path class="r" d="M265.975,194.514l-1.853,0a.463.463,0,0,0-.463.465q0,.465,0,.931a.466.466,0,0,0,.465.466l1.86,0a.461.461,0,0,0,.463-.464q0-.465-.006-.929A.471.471,0,0,0,265.975,194.514Z" transform="translate(-245.998 -181.519)"/><path class="s" d="M263.59,156.066q0,.465,0,.931a.465.465,0,0,0,.463.466l1.848.006a.454.454,0,0,0,.457-.462q-.005-.465-.012-.929Q264.969,156.067,263.59,156.066Z" transform="translate(-245.934 -145.659)"/><path class="t" d="M265.839,133.028q-.913-.007-1.826-.009a.459.459,0,0,0-.455.465q0,.465,0,.931a.465.465,0,0,0,.461.466q.921,0,1.842.007a.452.452,0,0,0,.454-.462q-.006-.465-.014-.929A.475.475,0,0,0,265.839,133.028Z" transform="translate(-245.905 -124.136)"/><path class="u" d="M325.057,217.684q0,.464.005.928a.467.467,0,0,0,.467.465l1.861,0a.459.459,0,0,0,.463-.46q0-.461-.008-.923Q326.451,217.689,325.057,217.684Z" transform="translate(-303.282 -203.168)"/><path class="v" d="M327.243,194.754l-1.853-.014a.455.455,0,0,0-.458.461q0,.464.008.928a.47.47,0,0,0,.468.465l1.86.007a.455.455,0,0,0,.46-.459q-.005-.461-.013-.923A.477.477,0,0,0,327.243,194.754Z" transform="translate(-303.166 -181.735)"/><path class="w" d="M324.307,156.378q.008.464.015.928a.475.475,0,0,0,.469.467l1.848.017a.442.442,0,0,0,.451-.456q-.012-.461-.025-.923Q325.686,156.391,324.307,156.378Z" transform="translate(-302.584 -145.95)"/><path class="x" d="M326.287,133.507q-.913-.016-1.826-.028a.442.442,0,0,0-.447.458q.009.464.018.928a.477.477,0,0,0,.468.468q.921.009,1.842.021a.438.438,0,0,0,.447-.455q-.014-.461-.029-.923A.49.49,0,0,0,326.287,133.507Z" transform="translate(-302.311 -124.565)"/><path class="y" d="M386.442,218q.006.46.009.92a.468.468,0,0,0,.468.461l1.861.006a.454.454,0,0,0,.461-.454q0-.456-.013-.912Q387.836,218.005,386.442,218Z" transform="translate(-360.555 -203.46)"/><path class="z" d="M388.511,195.3l-1.853-.023a.445.445,0,0,0-.454.455q.008.46.014.92a.472.472,0,0,0,.47.463l1.86.012a.448.448,0,0,0,.458-.453q-.008-.456-.019-.912A.483.483,0,0,0,388.511,195.3Z" transform="translate(-360.333 -182.236)"/><path class="aa" d="M386.451,278.6q0,.46-.009.92a.45.45,0,0,0,.458.456l1.857-.017a.477.477,0,0,0,.473-.461q.008-.456.013-.912Z" transform="translate(-360.554 -260.01)"/><path class="ab" d="M388.931,256H387.07a.464.464,0,0,0-.466.46q0,.46,0,.92a.455.455,0,0,0,.461.458l1.86-.012a.471.471,0,0,0,.471-.459q0-.456.006-.912A.46.46,0,0,0,388.931,256Z" transform="translate(-360.702 -238.905)"/><path class="ac" d="M385.025,157.189q.016.46.029.92a.485.485,0,0,0,.474.467l1.848.029a.43.43,0,0,0,.445-.448q-.018-.456-.039-.912Q386.4,157.213,385.025,157.189Z" transform="translate(-359.233 -146.707)"/><path class="ad" d="M386.733,134.6q-.913-.026-1.826-.046a.426.426,0,0,0-.438.45q.018.46.033.92a.489.489,0,0,0,.475.468q.921.016,1.842.035a.423.423,0,0,0,.44-.446q-.021-.456-.045-.912A.5.5,0,0,0,386.733,134.6Z" transform="translate(-358.715 -125.567)"/><path class="ae" d="M141.761,156.412q-.014.461-.025.923a.442.442,0,0,0,.451.456l1.848-.017a.475.475,0,0,0,.469-.467q.007-.464.015-.928Q143.139,156.391,141.761,156.412Z" transform="translate(-132.241 -145.95)"/><path class="af" d="M144.48,133.479q-.913.012-1.826.028a.49.49,0,0,0-.473.47q-.016.461-.029.923a.438.438,0,0,0,.447.455q.921-.012,1.842-.021a.477.477,0,0,0,.468-.468q.008-.464.018-.928A.442.442,0,0,0,144.48,133.479Z" transform="translate(-132.63 -124.565)"/><path class="ag" d="M140.774,217.7q-.005.461-.008.923a.459.459,0,0,0,.463.46l1.861,0a.467.467,0,0,0,.467-.465q0-.464.005-.928Q142.168,217.689,140.774,217.7Z" transform="translate(-131.336 -203.168)"/><path class="ah" d="M143.24,194.74l-1.853.014a.477.477,0,0,0-.471.466q-.007.461-.013.923a.455.455,0,0,0,.46.459l1.86-.007a.47.47,0,0,0,.468-.465q0-.464.008-.928A.455.455,0,0,0,143.24,194.74Z" transform="translate(-131.465 -181.735)"/><path class="ai" d="M140.766,278.86q0,.461.008.923a.474.474,0,0,0,.47.465q6.5.043,13,0a.474.474,0,0,0,.47-.465q.005-.461.008-.923-6.977.025-13.954,0Z" transform="translate(-130.743 -260.264)"/><path class="aj" d="M154.194,256H141.161a.463.463,0,0,0-.465.461q0,.461,0,.923a.47.47,0,0,0,.469.464q6.509.029,13.017,0a.47.47,0,0,0,.469-.464q0-.461,0-.923A.463.463,0,0,0,154.194,256Z" transform="translate(-130.677 -238.904)"/></svg>