<svg xmlns="http://www.w3.org/2000/svg" width="34" height="34" viewBox="0 0 34 34"><defs><style>.a{fill:#ffce00;}.b{fill:#ffa300;}.c{fill:#555a66;}.d{fill:#fe6a16;}.e{fill:#f24500;}.f{fill:#707789;}</style></defs><circle class="a" cx="17" cy="17" r="17"/><path class="b" d="M24.873,9.17q0-.455-.034-.9l-7.36-6.622L10.3,0,4.026,2.3,1.467,9.478,0,14.84l8.113,7.3a16.3,16.3,0,0,0,2.183.146C18.347,22.285,24.873,16.414,24.873,9.17Z" transform="translate(8.211 10.803)"/><g transform="translate(6.082 3.488)"><path class="c" d="M107.442,71.414H104.96V64.555a8.682,8.682,0,0,0-17.363,0v6.859H85.114V64.555a11.164,11.164,0,0,1,22.328,0Z" transform="translate(-85.114 -53.391)"/></g><g transform="translate(4.683 18.385)"><path class="d" d="M74.391,277.8H72.807a1.119,1.119,0,0,1-1.119-1.119v-4.448a1.119,1.119,0,0,1,1.119-1.119h1.585a1.119,1.119,0,0,1,1.119,1.119v4.448A1.119,1.119,0,0,1,74.391,277.8Z" transform="translate(-71.688 -271.112)"/></g><g transform="translate(25.944 18.385)"><path class="d" d="M382.928,277.8h1.585a1.119,1.119,0,0,0,1.119-1.119v-4.448a1.119,1.119,0,0,0-1.119-1.119h-1.585a1.119,1.119,0,0,0-1.119,1.119v4.448A1.119,1.119,0,0,0,382.928,277.8Z" transform="translate(-381.809 -271.112)"/></g><g transform="translate(4.683 21.871)"><path class="e" d="M71.688,323.892v2.118a1.119,1.119,0,0,0,1.119,1.119h1.585a1.119,1.119,0,0,0,1.119-1.119v-2.118Z" transform="translate(-71.688 -323.892)"/></g><g transform="translate(25.944 21.871)"><path class="e" d="M381.808,323.892v2.118a1.119,1.119,0,0,0,1.119,1.119h1.585a1.119,1.119,0,0,0,1.119-1.119v-2.118Z" transform="translate(-381.808 -323.892)"/></g><g transform="translate(6.973 16.563)"><path class="f" d="M105.808,253.176a2.855,2.855,0,0,1-2.855-2.855v-4.675a2.855,2.855,0,1,1,5.71,0v4.675A2.855,2.855,0,0,1,105.808,253.176Z" transform="translate(-102.953 -242.791)"/></g><g transform="translate(21.784 16.563)"><path class="f" d="M324.5,253.176a2.855,2.855,0,0,0,2.855-2.855v-4.675a2.855,2.855,0,1,0-5.71,0v4.675A2.855,2.855,0,0,0,324.5,253.176Z" transform="translate(-321.645 -242.791)"/></g><g transform="translate(6.973 21.918)"><path class="c" d="M102.953,323.892v2.232a2.855,2.855,0,1,0,5.71,0v-2.232Z" transform="translate(-102.953 -323.892)"/></g><g transform="translate(21.784 21.918)"><path class="c" d="M321.646,323.892v2.232a2.855,2.855,0,1,0,5.71,0v-2.232Z" transform="translate(-321.646 -323.892)"/></g></svg>