<svg xmlns="http://www.w3.org/2000/svg" xmlns:xlink="http://www.w3.org/1999/xlink" width="34" height="34" viewBox="0 0 34 34"><defs><style>.a{fill:url(#a);}.b{fill:url(#b);}.c{fill:url(#c);}.d{fill:url(#d);}.e{fill:url(#e);}.f{fill:url(#f);}.g{fill:url(#g);}.h{fill:url(#h);}.i{fill:url(#i);}.j{fill:url(#j);}.k{fill:url(#k);}.l{fill:url(#l);}.m{fill:url(#m);}</style><linearGradient id="a" x1="0.146" y1="0.854" x2="0.854" y2="0.146" gradientUnits="objectBoundingBox"><stop offset="0" stop-color="#0072ff"/><stop offset="1" stop-color="#00e5a1"/></linearGradient><radialGradient id="b" cx="0.5" cy="0.5" r="0.5" gradientUnits="objectBoundingBox"><stop offset="0" stop-color="#0072ff"/><stop offset="0.135" stop-color="#0a7dfd" stop-opacity="0.867"/><stop offset="0.37" stop-color="#2599f6" stop-opacity="0.631"/><stop offset="0.676" stop-color="#50c7ec" stop-opacity="0.325"/><stop offset="1" stop-color="#85ffe0" stop-opacity="0"/></radialGradient><linearGradient id="c" x1="-0.062" y1="1.108" x2="1.36" y2="-0.408" xlink:href="#a"/><linearGradient id="d" x1="-1.515" y1="1.796" x2="5.061" y2="-2.433" gradientUnits="objectBoundingBox"><stop offset="0" stop-color="#009ed8"/><stop offset="0.214" stop-color="#33b3df"/><stop offset="0.598" stop-color="#89d6ea"/><stop offset="0.869" stop-color="#bfecf1"/><stop offset="1" stop-color="#d4f4f4"/></linearGradient><linearGradient id="e" x1="-3.101" y1="1.297" x2="4.072" y2="-0.148" xlink:href="#d"/><linearGradient id="f" x1="-6.392" y1="23.964" x2="12.174" y2="-38.763" xlink:href="#d"/><linearGradient id="g" x1="-4.002" y1="1.363" x2="2.416" y2="0.069" xlink:href="#d"/><linearGradient id="h" x1="0.023" y1="1.469" x2="1.547" y2="-2.465" gradientUnits="objectBoundingBox"><stop offset="0" stop-color="#3dcbcd"/><stop offset="0.137" stop-color="#58d2d4"/><stop offset="1" stop-color="#fff"/></linearGradient><linearGradient id="i" x1="-1.316" y1="1.415" x2="1.079" y2="0.219" xlink:href="#h"/><linearGradient id="j" x1="-0.741" y1="1.018" x2="1.894" y2="-0.079" gradientUnits="objectBoundingBox"><stop offset="0" stop-color="#00babd"/><stop offset="0.038" stop-color="#0dbdc0"/><stop offset="0.236" stop-color="#4bced0"/><stop offset="0.425" stop-color="#7edcde"/><stop offset="0.6" stop-color="#a6e7e8"/><stop offset="0.76" stop-color="#c3eff0"/><stop offset="0.899" stop-color="#d5f3f4"/><stop offset="1" stop-color="#dbf5f6"/></linearGradient><linearGradient id="k" x1="-1.748" y1="1.901" x2="1.609" y2="-0.336" xlink:href="#a"/><radialGradient id="l" cx="0.489" cy="0.154" r="0.984" gradientTransform="translate(-0.25) scale(1.501 1)" gradientUnits="objectBoundingBox"><stop offset="0" stop-color="#0072ff"/><stop offset="0.929" stop-color="#00e5a1" stop-opacity="0"/></radialGradient><linearGradient id="m" x1="-2.717" y1="1.982" x2="1.322" y2="0.123" gradientUnits="objectBoundingBox"><stop offset="0" stop-color="#00e5a1"/><stop offset="0.342" stop-color="#58eec1"/><stop offset="1" stop-color="#fff"/></linearGradient></defs><circle class="a" cx="17" cy="17" r="17"/><circle class="b" cx="17" cy="17" r="17"/><path class="c" d="M209.954,57.126q.041,3.5.062,7-3.762-.059-7.525,0,.021-3.5.062-7Q206.253,57.008,209.954,57.126Z" transform="translate(-189.253 -53.054)"/><path class="d" d="M125.4,294.5q.008,1.582.027,3.164a9.329,9.329,0,0,0,1.688,5.173q1.867.091,3.734.136c-1.8-2.851-3.634-5.7-5.449-8.474Z" transform="translate(-117.164 -275.298)"/><path class="e" d="M130.439,53.08q-1.3.7-2.607,1.424a4.673,4.673,0,0,0-2.432,3.919q-.112,5.816-.082,11.631a10.64,10.64,0,0,0,4.5,8.448l.58.017Q130.271,65.8,130.439,53.08Z" transform="translate(-117.072 -49.348)"/><path class="f" d="M317.719,399.108a9.993,9.993,0,0,0,.634-1.057q-2,.607-4,1.183Q316.036,399.19,317.719,399.108Z" transform="translate(-293.632 -371.671)"/><path class="g" d="M318.8,58.424a4.673,4.673,0,0,0-2.432-3.919q-1.308-.72-2.607-1.424.169,12.72.041,25.439,1.357-.036,2.714-.1a11.369,11.369,0,0,0,1.285-1.087,9.143,9.143,0,0,0,1.054-4.117Q318.946,65.821,318.8,58.424Z" transform="translate(-293.132 -49.348)"/><path class="h" d="M164.521,391.216c-4.6-.237-9.217-.7-13.846-1.319a8.413,8.413,0,0,1-.884,1.63,9.217,9.217,0,0,0,7.468,4.157,8.936,8.936,0,0,0,6.391-2.841,10.31,10.31,0,0,0,1.077-1.316C164.656,391.425,164.588,391.322,164.521,391.216Z" transform="translate(-140.259 -364.482)"/><path class="i" d="M174.81,50.2a3.186,3.186,0,0,0-1.781-2.725l-.019-.01-.657-.329a.51.51,0,0,0-.759.428q.022,2.348.036,4.7-2.677-.037-5.354,0,.014-2.348.036-4.7a.51.51,0,0,0-.759-.428l-.656.329-.005,0a3.187,3.187,0,0,0-1.8,2.732q-.132,8.015-.067,16.03a7.784,7.784,0,0,1-.659,3.212,10.386,10.386,0,0,0,7.645,3.359,10.494,10.494,0,0,0,6.2-2.135,7.737,7.737,0,0,1-1.338-4.436Q174.942,58.214,174.81,50.2Z" transform="translate(-151.983 -43.765)"/><path class="j" d="M220.278,100.79a2.7,2.7,0,0,1-2.7-2.7q0-3.776.025-7.552a2.677,2.677,0,1,1,5.354,0q.021,3.776.025,7.552A2.7,2.7,0,0,1,220.278,100.79Z" transform="translate(-203.278 -82.179)"/><path class="k" d="M232.95,187.758q0,1.62,0,3.241a1.621,1.621,0,0,0,3.242,0q0-1.62,0-3.241Q234.567,187.75,232.95,187.758Z" transform="translate(-217.567 -175.401)"/><path class="l" d="M232.95,187.758q0,1.62,0,3.241a1.621,1.621,0,0,0,3.242,0q0-1.62,0-3.241Q234.567,187.75,232.95,187.758Z" transform="translate(-217.567 -175.401)"/><path class="m" d="M233.01,112.507Q233,114.4,233,116.288a1.617,1.617,0,1,0,3.234,0q0-1.89-.009-3.781a1.608,1.608,0,1,0-3.216,0Z" transform="translate(-217.618 -103.621)"/></svg>