<svg xmlns="http://www.w3.org/2000/svg" xmlns:xlink="http://www.w3.org/1999/xlink" width="34" height="34" viewBox="0 0 34 34"><defs><style>.a{fill:url(#a);}.b{fill:url(#b);}.c{fill:url(#c);}.d{fill:url(#d);}.e{fill:url(#e);}.f{fill:url(#f);}.g{fill:url(#g);}.h{fill:url(#h);}.i{fill:url(#i);}.j{fill:url(#j);}.k{fill:url(#k);}.l{fill:url(#l);}</style><linearGradient id="a" x1="0.146" y1="0.854" x2="0.854" y2="0.146" gradientUnits="objectBoundingBox"><stop offset="0" stop-color="#0072ff"/><stop offset="1" stop-color="#00e5a1"/></linearGradient><radialGradient id="b" cx="0.5" cy="0.5" r="0.5" gradientUnits="objectBoundingBox"><stop offset="0" stop-color="#0072ff"/><stop offset="0.135" stop-color="#0a7dfd" stop-opacity="0.867"/><stop offset="0.37" stop-color="#2599f6" stop-opacity="0.631"/><stop offset="0.676" stop-color="#50c7ec" stop-opacity="0.325"/><stop offset="1" stop-color="#85ffe0" stop-opacity="0"/></radialGradient><linearGradient id="c" x1="0.091" y1="1.405" x2="1.307" y2="-0.27" gradientUnits="objectBoundingBox"><stop offset="0" stop-color="#00babd"/><stop offset="0.206" stop-color="#36c9cb"/><stop offset="0.486" stop-color="#79dbdc"/><stop offset="0.722" stop-color="#aae9e9"/><stop offset="0.9" stop-color="#c9f1f1"/><stop offset="1" stop-color="#d4f4f4"/></linearGradient><linearGradient id="d" x1="0.5" y1="0.201" x2="0.5" y2="0.854" gradientUnits="objectBoundingBox"><stop offset="0" stop-color="#00babd"/><stop offset="0.101" stop-color="#07bcbf" stop-opacity="0.898"/><stop offset="0.676" stop-color="#2ec7c9" stop-opacity="0.31"/><stop offset="0.978" stop-color="#3dcbcd" stop-opacity="0"/></linearGradient><linearGradient id="e" x1="-3.774" y1="16.775" x2="1.116" y2="-2.009" gradientUnits="objectBoundingBox"><stop offset="0" stop-color="#00babd"/><stop offset="0.289" stop-color="#41ccce"/><stop offset="0.78" stop-color="#aae9e9"/><stop offset="1" stop-color="#d4f4f4"/></linearGradient><linearGradient id="f" x1="-0.375" y1="10.267" x2="1.223" y2="-7.622" xlink:href="#e"/><linearGradient id="g" x1="-0.667" y1="1.078" x2="2.368" y2="-0.332" gradientUnits="objectBoundingBox"><stop offset="0" stop-color="#00babd"/><stop offset="0.157" stop-color="#1bc2c4"/><stop offset="0.496" stop-color="#62d5d6"/><stop offset="0.988" stop-color="#d1f3f3"/><stop offset="1" stop-color="#d4f4f4"/></linearGradient><linearGradient id="h" x1="-0.31" y1="1.453" x2="0.873" y2="0.06" xlink:href="#c"/><radialGradient id="i" cx="0.5" cy="0.5" r="0.989" gradientTransform="translate(-0.003) scale(1.005 1)" gradientUnits="objectBoundingBox"><stop offset="0" stop-color="#fff"/><stop offset="1" stop-color="#85ffe0"/></radialGradient><linearGradient id="j" x1="0.098" y1="1.266" x2="0.857" y2="-0.166" gradientUnits="objectBoundingBox"><stop offset="0" stop-color="#85ffe0"/><stop offset="0.114" stop-color="#a1ffe7"/><stop offset="0.282" stop-color="#c3fff0"/><stop offset="0.453" stop-color="#ddfff6"/><stop offset="0.628" stop-color="#f0fffb"/><stop offset="0.808" stop-color="#fbfffe"/><stop offset="1" stop-color="#fff"/></linearGradient><linearGradient id="k" x1="-0.2" y1="1.849" x2="0.678" y2="0.164" gradientUnits="objectBoundingBox"><stop offset="0" stop-color="#00e5a1"/><stop offset="0.651" stop-color="#a9f6df"/><stop offset="1" stop-color="#fff"/></linearGradient><linearGradient id="l" x1="-0.182" y1="1.464" x2="1.076" y2="-0.307" gradientUnits="objectBoundingBox"><stop offset="0" stop-color="#00e5a1"/><stop offset="0.583" stop-color="#7eeed2"/><stop offset="1" stop-color="#d4f4f4"/></linearGradient></defs><circle class="a" cx="17" cy="17" r="17"/><circle class="b" cx="17" cy="17" r="17"/><path class="c" d="M204.724,330.473q-.362-1.135-.732-2.272-1.021-1.086-2.053-2.177-1.032,1.09-2.053,2.177-.37,1.136-.732,2.272a1.392,1.392,0,0,1-1.341.98q0,.272.009.544,4.117.048,8.235,0,0-.272.009-.544A1.392,1.392,0,0,1,204.724,330.473Z" transform="translate(-184.794 -304.443)"/><path class="d" d="M204.724,330.473q-.362-1.135-.732-2.272-1.021-1.086-2.053-2.177-1.032,1.09-2.053,2.177-.37,1.136-.732,2.272a1.392,1.392,0,0,1-1.341.98q0,.272.009.544,4.117.048,8.235,0,0-.272.009-.544A1.392,1.392,0,0,1,204.724,330.473Z" transform="translate(-184.794 -304.443)"/><path class="e" d="M317.824,401.674q-1.945.042-3.89.064-.009.544-.019,1.088,1.936-.024,3.871-.071a.579.579,0,0,0,.553-.553A.5.5,0,0,0,317.824,401.674Z" transform="translate(-293.062 -374.822)"/><path class="f" d="M148.886,402.275a.519.519,0,0,0-.524-.537q-6.072.068-12.143-.064a.5.5,0,0,0-.515.528.579.579,0,0,0,.553.553q6.043.146,12.086.071A.56.56,0,0,0,148.886,402.275Z" transform="translate(-126.923 -374.823)"/><path class="g" d="M65.564,109.537a1.594,1.594,0,0,0-1.5,1.472q-.386,7.163-.177,14.326a1.529,1.529,0,0,0,1.488,1.451q3.242.069,6.485.1-.133-8.759.088-17.519Q68.755,109.422,65.564,109.537Z" transform="translate(-59.287 -102.452)"/><path class="h" d="M156.1,124.828q-.109-7.294.092-14.588a1.518,1.518,0,0,1,1.461-1.471q8.688-.145,17.376.168a1.594,1.594,0,0,1,1.5,1.472q.386,7.163.177,14.326a1.529,1.529,0,0,1-1.488,1.451q-8.826.188-17.652.1A1.492,1.492,0,0,1,156.1,124.828Z" transform="translate(-146.994 -101.851)"/><path class="i" d="M249.436,326.57a.542.542,0,1,1-.542-.545A.545.545,0,0,1,249.436,326.57Z" transform="translate(-231.746 -304.227)"/><path class="j" d="M84.656,135.134c-.748-3.636-1.423-7.249-1.971-10.83q11.3-.408,22.6,0,.305,6.479.2,12.957c-6.927-.629-13.879-1.387-20.835-2.128Z" transform="translate(-76.821 -116.07)"/><path class="k" d="M80.8,138.876q-.578-3.019-1.074-6.016.054-2.941.193-5.882a73.89,73.89,0,0,0,22.82,12.957s-7.651.09-13.8.066Q84.873,139.447,80.8,138.876Z" transform="translate(-74.072 -118.757)"/><path class="l" d="M79.242,199.075q-.095,3.922-.027,7.844s5.443.064,11.108.068A16.041,16.041,0,0,0,79.242,199.075Z" transform="translate(-74.022 -185.962)"/></svg>