<svg xmlns="http://www.w3.org/2000/svg" xmlns:xlink="http://www.w3.org/1999/xlink" width="34" height="34" viewBox="0 0 34 34"><defs><style>.a{fill:url(#a);}.b{fill:url(#b);}.c{fill:url(#c);}.d{fill:url(#d);}.e{fill:url(#e);}.f{fill:url(#f);}.g{fill:url(#g);}.h{fill:url(#h);}</style><linearGradient id="a" x1="0.146" y1="0.854" x2="0.854" y2="0.146" gradientUnits="objectBoundingBox"><stop offset="0" stop-color="#0072ff"/><stop offset="1" stop-color="#00e5a1"/></linearGradient><radialGradient id="b" cx="0.5" cy="0.5" r="0.5" gradientUnits="objectBoundingBox"><stop offset="0" stop-color="#0072ff"/><stop offset="0.135" stop-color="#0a7dfd" stop-opacity="0.867"/><stop offset="0.37" stop-color="#2599f6" stop-opacity="0.631"/><stop offset="0.676" stop-color="#50c7ec" stop-opacity="0.325"/><stop offset="1" stop-color="#85ffe0" stop-opacity="0"/></radialGradient><linearGradient id="c" x1="-0.459" y1="2.48" x2="1.154" y2="-0.712" gradientUnits="objectBoundingBox"><stop offset="0" stop-color="#009ed8"/><stop offset="0.176" stop-color="#12abd9"/><stop offset="0.529" stop-color="#40cddc"/><stop offset="0.992" stop-color="#85ffe0"/></linearGradient><linearGradient id="d" x1="0.5" y1="0.834" x2="0.5" y2="-0.425" gradientUnits="objectBoundingBox"><stop offset="0" stop-color="#0072ff"/><stop offset="0.053" stop-color="#1083fb" stop-opacity="0.945"/><stop offset="0.187" stop-color="#34a9f3" stop-opacity="0.812"/><stop offset="0.327" stop-color="#51c8ec" stop-opacity="0.671"/><stop offset="0.473" stop-color="#68e0e7" stop-opacity="0.525"/><stop offset="0.626" stop-color="#78f2e3" stop-opacity="0.369"/><stop offset="0.791" stop-color="#82fce1" stop-opacity="0.204"/><stop offset="0.992" stop-color="#85ffe0" stop-opacity="0"/></linearGradient><linearGradient id="e" x1="-0.745" y1="2.567" x2="0.874" y2="-0.126" gradientUnits="objectBoundingBox"><stop offset="0" stop-color="#3dcbcd"/><stop offset="0.129" stop-color="#4fd0d2"/><stop offset="0.387" stop-color="#7ddcdd"/><stop offset="0.746" stop-color="#c7f0f1"/><stop offset="1" stop-color="#fff"/></linearGradient><linearGradient id="f" x1="0.026" y1="1.276" x2="1.044" y2="-0.289" gradientUnits="objectBoundingBox"><stop offset="0" stop-color="#00babd"/><stop offset="0.102" stop-color="#12bfc2"/><stop offset="0.306" stop-color="#40cbce"/><stop offset="0.594" stop-color="#8be0e1"/><stop offset="0.951" stop-color="#f1fbfb"/><stop offset="1" stop-color="#fff"/></linearGradient><linearGradient id="g" x1="-0.041" y1="1.374" x2="1.202" y2="-0.752" xlink:href="#e"/><linearGradient id="h" x1="-1.017" y1="2.25" x2="1.197" y2="-0.306" xlink:href="#e"/></defs><circle class="a" cx="17" cy="17" r="17"/><circle class="b" cx="17" cy="17" r="17"/><path class="c" d="M202.053,97.511q-3-.022-6,0a1.046,1.046,0,0,0-1.02,1.031q-.029,1.533-.047,3.067,4.065-.022,8.13,0-.018-1.533-.047-3.067A1.046,1.046,0,0,0,202.053,97.511Z" transform="translate(-181.999 -91.004)"/><path class="d" d="M202.053,97.511q-3-.022-6,0a1.046,1.046,0,0,0-1.02,1.031q-.029,1.533-.047,3.067,4.065-.022,8.13,0-.018-1.533-.047-3.067A1.046,1.046,0,0,0,202.053,97.511Z" transform="translate(-181.999 -91.004)"/><path class="e" d="M67.31,145.2q-2.5.06-5,.089a1.917,1.917,0,0,1-1.4-.585q-1.189-1.225-2.41-2.461-1.013,0-2.026,0-1.218,1.234-2.41,2.461a1.917,1.917,0,0,1-1.4.585q-2.5-.029-5-.089a4.431,4.431,0,0,1-4.23-4.113q-.183-4.331-.069-8.661a4.332,4.332,0,0,1,4.205-4.088q9.921-.185,19.842,0a4.332,4.332,0,0,1,4.205,4.088q.115,4.331-.069,8.661A4.431,4.431,0,0,1,67.31,145.2Z" transform="translate(-40.427 -119.706)"/><path class="f" d="M76.192,160.011a2.13,2.13,0,0,0-2.091,2.042q-.1,4.36.059,8.719a2.173,2.173,0,0,0,2.1,2.054q8.813.164,17.626.037c-5.74-4.208-11.907-8.66-17.7-12.852Z" transform="translate(-69.129 -149.35)"/><path class="g" d="M118.959,159.006q-6.471-.026-12.943.061c3.587,6.54,10.364,11.68,17.7,12.852q1.108-.016,2.216-.037a2.174,2.174,0,0,0,2.1-2.054q.052-1.442.076-2.884h-.01C125.1,164.352,122,161.678,118.959,159.006Z" transform="translate(-98.953 -148.406)"/><path class="h" d="M307.322,159.15q-3.521-.047-7.042-.061a9.181,9.181,0,0,0,9.141,7.94h.01q.049-2.918-.017-5.836A2.13,2.13,0,0,0,307.322,159.15Z" transform="translate(-280.274 -148.49)"/></svg>